<svg width="16" height="16" viewBox="0 0 16 16" fill="none" xmlns="http://www.w3.org/2000/svg">
<g clip-path="url(#clip0_1179_543)">
<path fill-rule="evenodd" clip-rule="evenodd" d="M3.50836 1.64405C3.31763 1.80829 3.16502 1.94508 3.01866 2.06541C2.87215 2.18573 2.73203 2.28951 2.5866 2.38216C2.44116 2.47474 2.2904 2.55611 2.15739 2.62116C2.0243 2.68613 1.9088 2.73464 1.75665 2.77728C1.4755 2.85587 0.738133 2.91678 0.453125 2.68606C0.907564 3.06553 1.10431 3.47772 1.17483 3.75349C1.2131 3.90315 1.22768 4.0249 1.23647 4.16974C1.24527 4.31458 1.24828 4.48251 1.23871 4.65157C1.22914 4.82062 1.20708 4.99081 1.17336 5.1746C1.13972 5.3584 1.09443 5.55566 1.04382 5.79871C0.993205 6.0417 0.937346 6.33032 0.890744 6.59053C0.843989 6.85081 0.806492 7.08258 0.790289 7.31127C0.756959 7.77836 0.809578 8.25267 0.961186 8.69764C1.04737 8.95047 1.17413 9.22918 1.32713 9.4396C1.4802 9.65009 1.65959 9.79237 1.8551 9.90683C2.10901 10.0554 2.43229 10.1767 2.74808 10.2231C2.79407 10.1073 2.84992 9.99843 2.91612 9.90202C3.02684 9.74056 3.16518 9.61813 3.31825 9.52405C3.47133 9.42997 3.63914 9.36432 3.80093 9.33333C3.95369 9.30393 4.10098 9.30551 4.28507 9.35153C4.28762 9.34266 4.29009 9.33356 4.29248 9.32431C4.34356 9.12848 4.37141 8.86986 4.36061 8.66741C4.34988 8.46504 4.30043 8.31869 4.26941 8.13204C4.23847 7.94524 4.22559 7.7179 4.21401 7.51929C4.20221 7.32067 4.19148 7.15102 4.21031 6.98452C4.22898 6.81809 4.2772 6.65498 4.40458 6.46592C4.53204 6.27686 4.73859 6.06208 4.96719 5.92077C5.19565 5.77961 5.44617 5.71201 5.69669 5.64447C5.63172 5.40066 5.5673 5.15671 5.57841 4.89485C5.58968 4.63126 5.67732 4.34933 5.78156 4.14733C5.88579 3.94526 6.00662 3.82298 6.14519 3.72401C6.28368 3.62497 6.43984 3.54909 6.62216 3.45982C6.80447 3.37033 7.01279 3.26738 7.19425 3.20022C7.37572 3.13292 7.53042 3.10148 7.71559 3.00943C7.90083 2.91731 8.11656 2.76457 8.26523 2.62342C8.28036 2.60905 8.29478 2.59484 8.30844 2.58063C8.16084 2.44 8.07983 2.31095 8.02629 2.15949C7.97259 2.0075 7.94651 1.83303 7.95299 1.65683C7.95955 1.48055 7.99867 1.30247 8.08624 1.128C8.13507 1.03099 8.1978 0.936009 8.2704 0.845239C8.07366 0.612411 7.81403 0.409964 7.56405 0.274824C7.36453 0.166908 7.1485 0.0867411 6.88502 0.0626761C6.62146 0.0387616 6.31037 0.0711741 6.04265 0.124869C5.57154 0.219324 5.12382 0.411994 4.72547 0.673701C4.53042 0.801772 4.34317 0.94932 4.13532 1.1189C3.92746 1.28841 3.69893 1.4798 3.50836 1.64405Z" fill="#DA6320"/>
<path fill-rule="evenodd" clip-rule="evenodd" d="M8.54904 2.20114C8.50058 2.33764 8.43014 2.45593 8.30855 2.58077C8.30909 2.5813 8.30955 2.58167 8.31001 2.58212C8.45861 2.7232 8.67433 2.87594 8.85966 2.96806C9.04483 3.06026 9.19952 3.0917 9.38091 3.15878C9.56246 3.22609 9.77077 3.32896 9.95301 3.41838C10.1355 3.5078 10.2916 3.5836 10.4301 3.68264C10.5686 3.78169 10.6894 3.90389 10.7936 4.10596C10.8978 4.30803 10.9856 4.58989 10.9968 4.85356C11.0079 5.11541 10.9436 5.3593 10.8786 5.60318C11.129 5.67071 11.3796 5.73825 11.608 5.8794C11.8367 6.02071 12.0431 6.23564 12.1707 6.42462C12.298 6.61368 12.3463 6.7768 12.3649 6.94315C12.3837 7.10957 12.373 7.27938 12.3612 7.47792C12.3496 7.67653 12.3368 7.90379 12.3058 8.0906C12.2747 8.2774 12.2253 8.42382 12.2146 8.62612C12.2039 8.82849 12.2317 9.08704 12.2829 9.28302C12.2867 9.29813 12.2908 9.3128 12.295 9.32716C12.4773 9.28099 12.6236 9.27896 12.7755 9.30723C12.9376 9.33754 13.1058 9.40229 13.2594 9.49554C13.4128 9.58872 13.552 9.71047 13.6635 9.87133C13.7282 9.96466 13.7833 10.0696 13.8292 10.1815C14.1443 10.1348 14.4667 10.0138 14.7201 9.86539C14.9157 9.75101 15.095 9.60887 15.2481 9.3983C15.4011 9.18789 15.5279 8.90918 15.614 8.6562C15.7656 8.2113 15.8183 7.73714 15.785 7.26998C15.7688 7.04129 15.7313 6.80951 15.6845 6.54923C15.6378 6.28896 15.582 6.0004 15.5313 5.75742C15.4808 5.51437 15.4355 5.31703 15.4018 5.13324C15.3682 4.94952 15.3459 4.77933 15.3366 4.61027C15.327 4.44114 15.3299 4.27329 15.3388 4.12837C15.3474 3.98361 15.3622 3.86185 15.4003 3.71212C15.4709 3.43643 15.6678 3.02424 16.1222 2.64477C15.837 2.87549 15.0997 2.8145 14.8186 2.73591C14.6664 2.69335 14.5509 2.64477 14.4179 2.57987C14.2848 2.51482 14.1341 2.43337 13.9886 2.3408C13.8432 2.24815 13.7031 2.14444 13.5566 2.02412C13.4102 1.90379 13.2575 1.767 13.067 1.60275C12.8762 1.43851 12.6478 1.24704 12.4399 1.07761C12.2319 0.907952 12.0449 0.760403 11.8497 0.632333C11.4514 0.370701 11.0036 0.177956 10.5326 0.0835005C10.2648 0.0298807 9.95378 -0.00253179 9.6903 0.021458C9.42667 0.0453726 9.21063 0.125689 9.01119 0.233455C8.74647 0.376567 8.47095 0.595182 8.27051 0.845383C8.35777 0.948637 8.43261 1.05776 8.48901 1.16966C8.57658 1.34413 8.61577 1.52221 8.62218 1.69841C8.62874 1.87469 8.60266 2.04916 8.54904 2.20114Z" fill="#DA6320"/>
<path fill-rule="evenodd" clip-rule="evenodd" d="M10.2243 10.5817C10.0672 10.6494 9.89834 10.6907 9.66672 10.6783C9.43495 10.6659 9.1406 10.5998 8.90034 10.478C8.66186 10.3571 8.47677 10.1812 8.29214 10.005C8.10735 10.1831 7.92257 10.3613 7.68331 10.4842C7.44375 10.6071 7.14971 10.6748 6.9181 10.6884C6.68648 10.702 6.51728 10.6616 6.35996 10.5946C6.20249 10.5276 6.05674 10.4342 5.886 10.3253C5.71503 10.2167 5.51913 10.0927 5.36837 9.97354C5.21746 9.85434 5.11199 9.73981 4.93723 9.62993C4.7624 9.52006 4.51852 9.41493 4.31869 9.36063C4.3075 9.35762 4.29647 9.35469 4.28559 9.35191C4.23482 9.53322 4.16245 9.65979 4.05937 9.77545C3.95128 9.89676 3.80924 10.0061 3.64937 10.0887C3.48951 10.1712 3.31175 10.2272 3.113 10.2406C2.9958 10.2483 2.87274 10.2417 2.7486 10.2235C2.63395 10.5126 2.58156 10.8442 2.58735 11.1313C2.5919 11.3535 2.62916 11.5759 2.74034 11.8101C2.85137 12.0443 3.03638 12.2901 3.21847 12.4889C3.53897 12.8384 3.93477 13.1189 4.36699 13.3233C4.57862 13.4234 4.80353 13.507 5.05837 13.597C5.31313 13.6871 5.59783 13.7836 5.83925 13.8617C6.08066 13.94 6.27872 13.9998 6.45903 14.0629C6.63941 14.1258 6.80175 14.1918 6.95698 14.2679C7.11222 14.344 7.26012 14.4301 7.38465 14.5096C7.5091 14.5892 7.61025 14.6621 7.72436 14.7689C7.93468 14.9657 8.20341 15.3372 8.3149 15.9104C8.25148 15.5546 8.67274 14.9615 8.8826 14.7628C8.99625 14.6554 9.09686 14.582 9.22092 14.5018C9.34499 14.4216 9.49258 14.3348 9.64728 14.2579C9.8022 14.1812 9.96407 14.1143 10.1441 14.0503C10.324 13.9864 10.5218 13.9255 10.7628 13.846C11.0038 13.7667 11.288 13.6687 11.5422 13.5773C11.7966 13.486 12.0211 13.4011 12.2321 13.3C12.6631 13.0935 13.0576 12.8108 13.3761 12.4596C13.557 12.26 13.7407 12.0131 13.8506 11.7783C13.9604 11.5436 13.9965 11.321 13.9997 11.0987C14.0041 10.8082 13.9486 10.4724 13.8296 10.1817C13.7046 10.2001 13.5811 10.2069 13.4632 10.1991C13.2644 10.1858 13.0865 10.1298 12.9267 10.0472C12.7669 9.96466 12.6248 9.85524 12.5167 9.73402C12.4169 9.62196 12.3458 9.49968 12.2954 9.32739C12.2833 9.3304 12.2711 9.33363 12.2588 9.33709C12.0592 9.39244 11.8159 9.49886 11.6418 9.60955C11.4677 9.72025 11.3626 9.83539 11.2127 9.95534C11.0624 10.0754 10.8671 10.2003 10.6969 10.3098C10.5266 10.4196 10.3816 10.5139 10.2243 10.5817Z" fill="#DA6320"/>
<path fill-rule="evenodd" clip-rule="evenodd" d="M5.37221 8.7089C5.23804 8.67543 5.13087 8.67438 5.01961 8.69566C4.9018 8.7183 4.77951 8.76613 4.6681 8.83449C4.55661 8.90307 4.45592 8.99219 4.37522 9.10973C4.32707 9.17997 4.28634 9.25923 4.25293 9.34354C4.34335 9.35677 4.43293 9.36174 4.51826 9.35595C4.663 9.34632 4.79247 9.30548 4.9089 9.2454C5.02532 9.18523 5.12871 9.10567 5.20748 9.01738C5.28248 8.93315 5.3351 8.84088 5.37221 8.7089Z" fill="#DA6320"/>
<path fill-rule="evenodd" clip-rule="evenodd" d="M11.2051 8.69112C11.2418 8.81649 11.2936 8.90568 11.3663 8.9872C11.445 9.07549 11.5483 9.15513 11.6648 9.21521C11.7812 9.27545 11.9107 9.31614 12.0554 9.32591C12.1413 9.33155 12.2312 9.32659 12.3222 9.3132C12.2888 9.23183 12.2487 9.15535 12.2016 9.08744C12.1202 8.9702 12.0191 8.88154 11.9073 8.81378C11.7954 8.74587 11.6729 8.69864 11.5549 8.67661C11.4443 8.656 11.3379 8.65751 11.2051 8.69112Z" fill="#DA6320"/>
<path fill-rule="evenodd" clip-rule="evenodd" d="M8.30247 3.7786C8.39089 3.68761 8.44235 3.60158 8.47761 3.50216C8.51657 3.39146 8.53563 3.26452 8.53085 3.13607C8.52614 3.00777 8.49775 2.87805 8.43394 2.75096C8.3929 2.66951 8.33827 2.5901 8.27477 2.51489C8.22192 2.58107 8.17617 2.65011 8.14068 2.72087C8.07687 2.84789 8.0484 2.97754 8.04369 3.10591C8.03891 3.23421 8.05789 3.36123 8.09701 3.47193C8.13605 3.58225 8.19492 3.67618 8.30247 3.7786Z" fill="#DA6320"/>
<path fill-rule="evenodd" clip-rule="evenodd" d="M8.70357 4.0609C8.56863 3.99381 8.41155 3.88251 8.30322 3.77979L8.30222 3.77881C8.29234 3.78919 8.28169 3.79949 8.27074 3.81002C8.16249 3.91275 8.00533 4.02397 7.87054 4.09105C7.73567 4.15813 7.62303 4.18099 7.49086 4.23003C7.3587 4.27891 7.20701 4.35381 7.07431 4.41894C6.94152 4.48399 6.8278 4.53926 6.72688 4.61138C6.62604 4.6835 6.53808 4.77247 6.46216 4.91964C6.38624 5.06674 6.32244 5.27204 6.31426 5.46396C6.30616 5.65467 6.35307 5.83238 6.40029 6.00993C6.21789 6.05904 6.0355 6.10822 5.86916 6.21103C5.70266 6.3139 5.55221 6.4704 5.45947 6.60802C5.36665 6.74572 5.33162 6.86454 5.31796 6.98569C5.30431 7.10684 5.3121 7.2304 5.32066 7.37509C5.32915 7.51979 5.33849 7.68523 5.36102 7.8212C5.38362 7.95724 5.41958 8.0638 5.42745 8.21113C5.43532 8.35852 5.41502 8.54676 5.37784 8.68949L5.37251 8.70927L5.39659 8.71551C5.5421 8.75515 5.71978 8.83178 5.84701 8.91172C5.97424 8.99173 6.05109 9.07521 6.16088 9.16192C6.27067 9.24878 6.41332 9.33895 6.53777 9.41806C6.66215 9.4974 6.76831 9.56538 6.88296 9.61419C6.99761 9.663 7.12075 9.69248 7.28941 9.68247C7.45807 9.67262 7.67225 9.62337 7.84662 9.53372C8.02091 9.44423 8.15539 9.31451 8.28995 9.18478C8.42443 9.31308 8.55922 9.44122 8.73297 9.52929C8.90772 9.61795 9.12221 9.66608 9.29087 9.67511C9.45961 9.68413 9.58267 9.65405 9.69709 9.60479C9.81136 9.55546 9.91706 9.48672 10.0411 9.40686C10.1652 9.32707 10.3073 9.23607 10.4166 9.14868C10.526 9.06137 10.6023 8.97752 10.7292 8.8969C10.8559 8.81621 11.0331 8.73883 11.1785 8.69844L11.2051 8.69145C11.2019 8.681 11.199 8.67024 11.1963 8.65926C11.1589 8.5166 11.1387 8.32829 11.1466 8.1809C11.1544 8.03357 11.1903 7.92708 11.2129 7.79097C11.2355 7.655 11.245 7.4894 11.2534 7.34486C11.262 7.20032 11.2697 7.07661 11.2561 6.95546C11.2424 6.83423 11.2073 6.71549 11.1145 6.57787C11.0218 6.44017 10.8713 6.28375 10.7049 6.18079C10.5385 6.07799 10.3561 6.02881 10.1737 5.97963C10.221 5.80215 10.2679 5.62452 10.2599 5.4338C10.2517 5.24188 10.1878 5.03658 10.1118 4.88941C10.036 4.74231 9.94792 4.65327 9.84708 4.58115C9.74624 4.50903 9.63259 4.45376 9.49973 4.38871C9.36702 4.32365 9.21542 4.24868 9.08317 4.1998C8.95101 4.15084 8.83836 4.1279 8.70357 4.0609ZM8.27452 7.04653C7.72557 7.04653 7.21835 6.76114 6.94392 6.29774C7.49279 6.29774 8.00008 6.58321 8.27452 7.04653ZM8.27452 7.04661C8.82347 7.04661 9.33084 7.332 9.6052 7.79533C9.05625 7.79533 8.54911 7.51001 8.27452 7.04661ZM8.27452 5.54894C8.54741 6.00956 8.54911 6.57651 8.27946 7.03841C8.55505 6.57982 9.05941 6.29774 9.6052 6.29774C9.33084 6.76114 8.82347 7.04653 8.27452 7.04653C8.00008 6.58321 8.00008 6.01226 8.27452 5.54894ZM6.94392 7.79533C7.21835 7.332 7.72557 7.04661 8.27452 7.04661C8.54896 7.51001 8.54911 8.0808 8.27452 8.54428C8.0017 8.08358 8.00008 7.51678 8.26966 7.0548C7.99406 7.51324 7.48963 7.79533 6.94392 7.79533Z" fill="#DA6320"/>
</g>
<defs>
<clipPath id="clip0_1179_543">
<rect width="16" height="16" fill="white"/>
</clipPath>
</defs>
</svg>
